<svg width="31" height="28" viewBox="0 0 31 28" fill="none" xmlns="http://www.w3.org/2000/svg">
<g clip-path="url(#clip0_3004_3030)">
<path fill-rule="evenodd" clip-rule="evenodd" d="M19.4485 21.6414V27.1799H22.6223C26.7585 27.1799 30.1419 23.7966 30.1419 19.6603V17.1128H24.6033V19.6603C24.6033 20.7508 23.7115 21.6414 22.6223 21.6414H19.4473H19.4485Z" fill="#FEFEFE"/>
<path fill-rule="evenodd" clip-rule="evenodd" d="M24.6044 10.1183H30.1429V8.33954C30.1417 4.20328 26.7584 0.819946 22.6221 0.819946H7.51959C3.38333 0.819946 0 4.20328 0 8.33954V10.0172H5.53857V8.33954C5.53857 7.24913 6.4304 6.35852 7.51959 6.35852H12.1188V27.1799H18.0217V6.35852H22.6221C23.7113 6.35852 24.6032 7.25034 24.6032 8.33954V10.1183H24.6044Z" fill="#FEFEFE"/>
<path fill-rule="evenodd" clip-rule="evenodd" d="M10.7555 27.1799V21.6413H7.52081C6.4304 21.6413 5.53979 20.7507 5.53979 19.6603V11.4329H0V19.6603C0 23.7966 3.38333 27.1799 7.51959 27.1799H10.7555Z" fill="#FEFEFE"/>
</g>
<defs>
<clipPath id="clip0_3004_3030">
<rect width="30.1417" height="26.36" fill="white" transform="translate(0 0.819946)"/>
</clipPath>
</defs>
</svg>
